<svg width="14" height="18" viewBox="0 0 14 18" fill="none" xmlns="http://www.w3.org/2000/svg">
<path d="M1.99992 17.3333H11.9999C12.4419 17.3333 12.8659 17.1577 13.1784 16.8451C13.491 16.5326 13.6666 16.1087 13.6666 15.6666V2.33329C13.6666 1.89127 13.491 1.46734 13.1784 1.15478C12.8659 0.842221 12.4419 0.666626 11.9999 0.666626H1.99992C1.55789 0.666626 1.13397 0.842221 0.821407 1.15478C0.508847 1.46734 0.333252 1.89127 0.333252 2.33329V15.6666C0.333252 16.1087 0.508847 16.5326 0.821407 16.8451C1.13397 17.1577 1.55789 17.3333 1.99992 17.3333ZM4.49992 14.8333H2.83325V13.1666H4.49992V14.8333ZM4.49992 11.5H2.83325V9.83329H4.49992V11.5ZM4.49992 8.16663H2.83325V6.49996H4.49992V8.16663ZM7.83325 14.8333H6.16659V13.1666H7.83325V14.8333ZM7.83325 11.5H6.16659V9.83329H7.83325V11.5ZM7.83325 8.16663H6.16659V6.49996H7.83325V8.16663ZM11.1666 14.8333H9.49992V9.83329H11.1666V14.8333ZM11.1666 8.16663H9.49992V6.49996H11.1666V8.16663ZM1.99992 2.33329H11.9999V4.83329H1.99992V2.33329Z" fill="white"/>
</svg>
